Patient4_TMGait_0pt2_02_right_04_EMG.mot
version=1
nRows=13
nColumns=33
inDegrees=no
endheader
time	1LAddLong	2LGlutMax	3LGlutMed	4LIliopsoas	5LSemiMemb	6LBicFemLong	7LRecFem	8LVastMed	9LVastLat	10LGasMed	11LTibAnt	12lTibPost	13LPeroneusLong	14LSol	15LExtDigLong	16LFlexDigLong	17RAddLong	18RGlutMax	19RGlutMed	20RIliopsoas	21RSemiMemb	22RBicFemLong	23RRecFem	24RVastMed	25RVastLat	26RGasMed	27RTibAnt	28RTibPost	29RPeroneusLong	30RSol	31RExtDigLong	32RFlexDigLong
9.27	-0.029297	0.10162	-0.072632	-0.003204	-0.043182	-0.016937	0.034637	0.003204	-0.028534	0.030365	-0.050812	0.000153	-0.076141	-0.056	-0.26596	-0.011597	0.030823	0.14603	0.30167	-0.00885	0.10544	-0.22247	-0.10544	-0.012054	0.059814	0.001831	-0.014954	-0.006561	-0.086823	-0.054169	-0.002136	-0.011902
9.271	-0.016937	0.085449	-0.061188	-0.008545	-0.030975	-0.038605	0.065765	0.005188	-0.028687	-0.000153	-0.01358	0.001678	-0.079956	-0.090485	-0.25055	-0.008545	0.009155	0.12589	0.99869	-0.08194	-0.16434	-0.059204	-0.055389	0.029907	0.029144	-0.047607	-0.015106	-0.002441	-0.4512	-0.050049	0.002594	-0.01709
9.272	0.001678	0.1236	0	-0.015869	0.040436	-0.093994	0.075836	-0.01297	-0.033569	-0.031433	0.050049	0.000458	-0.029602	-0.099792	-0.070801	-0.011444	0.00351	0.1033	1.7204	-0.043182	-0.095978	-0.00946	-0.039978	-0.048981	0.014954	-0.02182	0.063171	-0.008392	-0.58197	0.015717	-0.000916	-0.003204
9.273	0.034332	0.065002	0.063171	0.017548	0.10544	-0.13626	0.052338	-0.011292	-0.02182	-0.013275	0.085754	0.001068	-0.009766	-0.040588	0.027313	-0.003815	0.002747	-0.056152	0.62103	-0.020447	0.076294	-0.040741	-0.073395	-0.05188	0.049133	-0.002136	0.012817	-0.006409	0.17563	-0.026703	0.002136	-0.007935
9.274	0.041809	0.053406	-0.016022	0.030823	0.047607	-0.095215	0.062561	-0.013123	-0.007172	0.017548	0.055084	-0.001373	-0.021057	-0.015259	0.025787	-0.00473	0.016174	-0.064392	-0.1207	0.01297	-0.13428	0.00061	-0.046692	-0.01297	0.08728	-0.007629	-0.019684	-0.006256	0.38406	-0.021362	0.000305	-0.00473
9.275	0.03891	0.063019	-0.006714	0.010834	0.011292	-0.025635	0.028381	-0.00473	-0.021057	0.03006	0.012665	0.007629	0.03006	0.001984	0.067139	-0.002747	-0.006714	-0.025177	-0.177	0.073395	-0.17471	0.006104	-0.095215	0.025177	0.068054	-0.016174	-0.020142	-0.000916	0.1973	0.073853	-0.003052	-0.007782
9.276	0.032196	0.079803	-0.060272	-0.001526	0.016479	-0.002899	-0.007019	0.005798	-0.011597	0.006409	0.018311	0.008698	0.046539	0.037384	0.10803	-0.010529	-0.01709	-0.065918	-0.41	0.13321	-0.060577	-0.031281	-0.051117	0.04425	0.017853	-0.006104	-0.024567	-0.002136	-0.006256	0.10773	0.001678	-0.01358
9.277	0.020142	0.10651	-0.096893	-0.013428	0.03006	-0.022125	-0.029755	-0.001984	0.005646	-0.011749	0.000305	0.003815	0.035248	0.007477	0.065613	-0.001678	0.008392	-0.086365	-0.41702	0.057831	-0.062561	0.019379	-0.043793	0.10162	0.009918	-0.002747	-0.021515	-0.007172	0.15152	-0.029144	0.001984	-0.016937
9.278	0.005188	0.075836	-0.034943	0.021362	0.00885	-0.015717	0.00061	0.000763	0.003967	-0.009155	-0.016479	0.005951	-0.009918	-0.013885	0.011292	-0.013885	0.014648	-0.11169	-0.27649	-0.036163	0.056915	-0.012512	-0.00824	0.036621	-0.013275	-0.011444	-0.000153	-0.020752	0.13473	-0.054779	0.002747	-0.013428
9.279	-0.023041	0.09613	0.020599	0.015411	-0.007477	0.013733	0.058136	0.010681	0.012665	-0.015259	-0.00885	0.00412	-0.056763	-0.036621	0.035553	0.00351	0.028381	-0.12741	-0.12009	-0.1239	0.098877	-0.048828	-0.041199	-0.02243	-0.02182	-0.03479	0.003967	-0.031891	0.052795	-0.046082	0.002289	-0.012512
9.28	-0.031891	0.068665	-0.060272	-0.000458	-0.074463	0.023041	0.066376	0.010681	0.004883	-0.000916	0.011597	0.003662	-0.018921	-0.010529	0.15152	-0.001984	0.052338	-0.1329	-0.11459	-0.11246	-0.10178	-0.015411	-0.021515	-0.10346	-0.019531	-0.038147	0.032654	0.055389	-0.014801	-0.041656	-0.00061	-0.014954
9.281	-0.037842	0.076752	-0.03952	-0.017853	-0.10483	0.007019	0.097961	0.004425	0.004425	-0.016479	-0.013428	0.004272	0.02243	-0.017242	0.22049	-0.003052	0.045624	-0.007172	-0.15656	-0.075684	-0.066986	-0.021667	-0.031891	-0.10376	-0.0354	-0.046082	0.0383	-0.002747	-0.011292	-0.021973	0.000763	-0.018768
9.282	-0.010529	0.063324	-0.030975	-0.00824	-0.13489	-0.043182	0.083771	-0.004883	-0.03418	-0.006714	0.008698	0.00061	0.009308	-0.054321	0.19058	0.004272	-0.007019	0.028229	-0.067291	-0.017395	-0.049286	0.011902	-0.059052	-0.054779	-0.026398	-0.068512	0.001221	-0.027924	-0.002594	0.048065	0.001526	-0.010681
